# xmcd CD database file
#
# Track frame offsets:
#	150
#	14337
#	25362
#	36087
#	53187
#	64285
#	80110
#	95937
#	109962
#	123762
#	137863
#	148888
#
# Disc length: 2237 seconds
#
# Revision: 4
# Processed by: cddbd v1.5.2PL0 Copyright (c) Steve Scherf et al.
# Submitted via: CDex 1.70beta2
#
DISCID=b608bb0c
DTITLE=Dillards - Take Me Along For The Ride
DYEAR=1992
DGENRE=Country
TTITLE0=Someone's Throwing Stones
TTITLE1=In My Life
TTITLE2=Like A Hurricane
TTITLE3=Take Me Along For The Ride
TTITLE4=Against The Grain
TTITLE5=Hearts Overflowing
TTITLE6=Bed Of Clover
TTITLE7=Banks Of The Rouge Bayou
TTITLE8=Move On (Life Of The Common Man)
TTITLE9=Food On The Table
TTITLE10=Wide Wide Dixie Highway
TTITLE11=The Great Connection
EXTD=YEAR: 1992
EXTT0=
EXTT1=
EXTT2=
EXTT3=
EXTT4=
EXTT5=
EXTT6=
EXTT7=
EXTT8=
EXTT9=
EXTT10=
EXTT11=
PLAYORDER=
